REM DIRINDEX 1\4,1\2\5,1\2\6,1\3\7,1\3\8
REM DIRNAME folder01,folder02,folder03,folder04,folder05,folder06,folder07,folder08
TITLE ""
FILE "018_Day09_Check3_Sentences.mp3" MP3
  TRACK 01 AUDIO
    TITLE "0:"
    INDEX 01 00:00:00
  TRACK 02 AUDIO
    TITLE "4:cjc124_0562"
    INDEX 01 00:00:25
  TRACK 03 AUDIO
    TITLE "0:"
    INDEX 01 00:01:52
  TRACK 04 AUDIO
    TITLE "7:cjc124_0563"
    INDEX 01 00:02:32
  TRACK 05 AUDIO
    TITLE "0:"
    INDEX 01 00:04:58
  TRACK 06 AUDIO
    TITLE "8:cjc124_0564"
    INDEX 01 00:05:03
  TRACK 07 AUDIO
    TITLE "0:"
    INDEX 01 00:07:29
  TRACK 08 AUDIO
    TITLE "7:cjc124_0565"
    INDEX 01 00:07:66
  TRACK 09 AUDIO
    TITLE "0:"
    INDEX 01 00:11:11
  TRACK 10 AUDIO
    TITLE "8:cjc124_0566"
    INDEX 01 00:11:27
  TRACK 11 AUDIO
    TITLE "0:"
    INDEX 01 00:14:41
  TRACK 12 AUDIO
    TITLE "7:cjc124_0567"
    INDEX 01 00:15:03
  TRACK 13 AUDIO
    TITLE "0:"
    INDEX 01 00:17:70
  TRACK 14 AUDIO
    TITLE "8:cjc124_0568"
    INDEX 01 00:18:11
  TRACK 15 AUDIO
    TITLE "0:"
    INDEX 01 00:21:23
  TRACK 16 AUDIO
    TITLE "7:cjc124_0569"
    INDEX 01 00:21:60
  TRACK 17 AUDIO
    TITLE "0:"
    INDEX 01 00:23:59
  TRACK 18 AUDIO
    TITLE "8:cjc124_0570"
    INDEX 01 00:23:73
  TRACK 19 AUDIO
    TITLE "0:"
    INDEX 01 00:25:52
  TRACK 20 AUDIO
    TITLE "7:cjc124_0571"
    INDEX 01 00:26:17
  TRACK 21 AUDIO
    TITLE "0:"
    INDEX 01 00:28:37
  TRACK 22 AUDIO
    TITLE "8:cjc124_0572"
    INDEX 01 00:28:55
  TRACK 23 AUDIO
    TITLE "0:"
    INDEX 01 00:31:45
  TRACK 24 AUDIO
    TITLE "7:cjc124_0573"
    INDEX 01 00:32:05
  TRACK 25 AUDIO
    TITLE "0:"
    INDEX 01 00:35:41
  TRACK 26 AUDIO
    TITLE "8:cjc124_0574"
    INDEX 01 00:35:61
  TRACK 27 AUDIO
    TITLE "0:"
    INDEX 01 00:38:49
  TRACK 28 AUDIO
    TITLE "7:cjc124_0575"
    INDEX 01 00:39:13
  TRACK 29 AUDIO
    TITLE "0:"
    INDEX 01 00:42:23
  TRACK 30 AUDIO
    TITLE "8:cjc124_0576"
    INDEX 01 00:42:39
  TRACK 31 AUDIO
    TITLE "0:"
    INDEX 01 00:44:73
  TRACK 32 AUDIO
    TITLE "7:cjc124_0577"
    INDEX 01 00:45:35
  TRACK 33 AUDIO
    TITLE "0:"
    INDEX 01 00:49:41
  TRACK 34 AUDIO
    TITLE "8:cjc124_0578"
    INDEX 01 00:49:65
  TRACK 35 AUDIO
    TITLE "0:"
    INDEX 01 00:52:65
  TRACK 36 AUDIO
    TITLE "7:cjc124_0579"
    INDEX 01 00:53:27
  TRACK 37 AUDIO
    TITLE "0:"
    INDEX 01 00:55:44
  TRACK 38 AUDIO
    TITLE "8:cjc124_0580"
    INDEX 01 00:55:59
  TRACK 39 AUDIO
    TITLE "0:"
    INDEX 01 00:58:11
  TRACK 40 AUDIO
    TITLE "7:cjc124_0581"
    INDEX 01 00:58:48
  TRACK 41 AUDIO
    TITLE "0:"
    INDEX 01 01:00:47
  TRACK 42 AUDIO
    TITLE "8:cjc124_0582"
    INDEX 01 01:00:66
  TRACK 43 AUDIO
    TITLE "0:"
    INDEX 01 01:03:45
  TRACK 44 AUDIO
    TITLE "7:cjc124_0583"
    INDEX 01 01:04:05
  TRACK 45 AUDIO
    TITLE "0:"
    INDEX 01 01:06:57
  TRACK 46 AUDIO
    TITLE "8:cjc124_0584"
    INDEX 01 01:06:73
  TRACK 47 AUDIO
    TITLE "0:"
    INDEX 01 01:09:26
  TRACK 48 AUDIO
    TITLE "7:cjc124_0585"
    INDEX 01 01:09:67
  TRACK 49 AUDIO
    TITLE "0:"
    INDEX 01 01:12:44
  TRACK 50 AUDIO
    TITLE "8:cjc124_0586"
    INDEX 01 01:12:66
  TRACK 51 AUDIO
    TITLE "0:"
    INDEX 01 01:16:12
  TRACK 52 AUDIO
    TITLE "7:cjc124_0587"
    INDEX 01 01:16:50
  TRACK 53 AUDIO
    TITLE "0:"
    INDEX 01 01:19:28
  TRACK 54 AUDIO
    TITLE "8:cjc124_0588"
    INDEX 01 01:19:48
  TRACK 55 AUDIO
    TITLE "0:"
    INDEX 01 01:22:17
  TRACK 56 AUDIO
    TITLE "7:cjc124_0589"
    INDEX 01 01:22:54
  TRACK 57 AUDIO
    TITLE "0:"
    INDEX 01 01:25:35
  TRACK 58 AUDIO
    TITLE "8:cjc124_0590"
    INDEX 01 01:25:55
  TRACK 59 AUDIO
    TITLE "0:"
    INDEX 01 01:28:22
  TRACK 60 AUDIO
    TITLE "7:cjc124_0591"
    INDEX 01 01:28:59
  TRACK 61 AUDIO
    TITLE "0:"
    INDEX 01 01:31:16
  TRACK 62 AUDIO
    TITLE "8:cjc124_0592"
    INDEX 01 01:31:38
  TRACK 63 AUDIO
    TITLE "0:"
    INDEX 01 01:33:58
  TRACK 64 AUDIO
    TITLE "7:cjc124_0593"
    INDEX 01 01:34:20
  TRACK 65 AUDIO
    TITLE "0:"
    INDEX 01 01:36:68
  TRACK 66 AUDIO
    TITLE "8:cjc124_0594"
    INDEX 01 01:37:11
  TRACK 67 AUDIO
    TITLE "0:"
    INDEX 01 01:39:23
